<?xml version="1.0" encoding="UTF-8" standalone="no"?>
<!-- Created with Inkscape (http://www.inkscape.org/) -->

<svg
   width="512"
   height="512"
   viewBox="0 0 135.46666 135.46667"
   version="1.1"
   id="svg5"
   inkscape:version="1.1.1 (3bf5ae0d25, 2021-09-20)"
   sodipodi:docname="bailleur.svg"
   xmlns:inkscape="http://www.inkscape.org/namespaces/inkscape"
   xmlns:sodipodi="http://sodipodi.sourceforge.net/DTD/sodipodi-0.dtd"
   xmlns="http://www.w3.org/2000/svg"
   xmlns:svg="http://www.w3.org/2000/svg">
   <path
       id="path1259"
       style="stroke-width:0.266317"
       d="m 35.511719,36.007812 c -9.746297,7.712453 -19.596819,15.2959 -29.2037144,23.182356 -1.318549,1.136635 -2.7521967,2.197618 -3.782614,3.61452 -0.1058059,0.860792 0.6713298,1.572744 1.3164063,2.02539 1.1218067,0.46333 2.0988938,-0.455347 2.8907321,-1.116814 3.644733,-2.843342 7.289878,-5.67309 10.921768,-8.52967 0,23.259114 0,46.518226 0,69.777346 6.308594,0 12.617187,0 18.925781,0 0.0729,-7.02358 0.423728,-14.05306 1.24027,-21.03069 0.492655,-4.663449 1.947064,-9.370841 5.023358,-12.995813 3.395201,-3.960671 8.488132,-6.522992 13.726913,-6.645183 0.627078,0.0083 1.257465,0.08169 1.853209,0.284965 0.176347,-0.862791 0.07119,-1.859698 -0.714483,-2.392218 -3.168107,-3.068246 -5.26158,-7.280315 -5.499905,-11.709317 -0.213653,-3.619167 -0.311009,-7.147785 -0.753715,-10.753138 -0.451533,-3.197888 -0.184566,-6.768905 1.961352,-9.348561 2.083663,-2.713119 4.840442,-4.948968 8.070702,-6.138083 4.391342,-1.859065 9.353087,-2.54734 14.047377,-1.588371 2.238166,0.542415 4.182318,2.162178 5.021485,4.320313 0.964676,1.747153 2.765341,2.799611 3.809049,4.491743 1.046283,1.440143 1.688511,3.186137 1.60306,4.980913 0.08992,1.66328 -0.243887,3.35023 -1.13114,4.774193 -0.447641,0.991997 -1.162468,1.908773 -1.404016,2.96487 -0.01061,4.353758 0.25551,8.96719 -1.79112,12.963508 -1.206772,2.502084 -3.344688,4.353195 -5.099505,6.449773 0.08445,0.309856 0.104397,1.068939 0.347656,1.035156 1.683648,-0.70132 3.553695,-0.214481 5.273104,0.08164 3.464134,0.739172 6.7827,2.372227 9.229645,4.970491 2.221428,2.112366 3.961093,4.754205 4.799102,7.718135 1.698314,5.281302 2.136174,10.857782 2.456815,16.365162 0.12733,3.73257 0.164178,7.46756 0.278443,11.20051 6.291666,0 12.583336,0 18.874996,0 0,-23.27865 0,-46.557294 0,-69.83594 4.19075,3.250326 8.35921,6.536403 12.5918,9.728516 0.8861,0.342455 1.86634,-0.373792 2.33008,-1.113282 0.35125,-0.483962 0.29668,-1.093184 -0.17265,-1.46476 -1.41781,-1.585462 -3.15371,-2.848249 -4.76592,-4.225874 -7.00804,-5.74504 -14.17817,-11.272202 -21.28018,-16.901162 0.17843,-8.656908 0.0864,-17.31648 0.11133,-25.97461 -4.74414,0 -9.488284,0 -14.232424,0 0,4.954427 0,9.908854 0,14.863281 C 84.169854,23.575784 75.956497,17.112482 67.742188,10.650391 56.998698,19.102865 46.255208,27.555339 35.511719,36.007812 Z m 32.878906,11.400391 c -2.395836,0.273254 -4.669676,1.218127 -6.797663,2.313459 -1.778646,1.013399 -3.433793,2.365268 -4.536987,4.10367 -0.865925,1.638289 -0.596357,3.554843 -0.596991,5.334824 0.913163,-0.698275 1.791613,-1.749652 3.00586,-1.798828 1.931899,0.471416 3.499172,1.875348 5.49131,2.181709 3.602191,0.856519 7.307962,0.152188 10.67883,-1.294037 1.127083,-0.434409 2.535233,-0.85819 3.572047,0.01858 0.357792,0.260046 0.666561,0.578826 0.984375,0.882813 0.713771,-1.317197 1.282085,-3.073575 0.271999,-4.400376 -1.409668,-2.159064 -3.822373,-3.599326 -4.707546,-6.111343 -0.446978,-1.021318 -1.613269,-1.179063 -2.593994,-1.208232 -1.587046,-0.07263 -3.184328,-0.0867 -4.77124,-0.02224 z M 75.519531,63.6875 c -4.346994,1.508754 -9.187516,1.723812 -13.574401,0.241865 -0.737349,-0.180344 -1.447481,-0.601843 -2.154503,-0.751101 -0.995425,0.3709 -1.842844,1.030709 -2.765236,1.542439 0.16654,2.801289 0.05967,5.579783 0.744734,8.321889 1.152176,3.534194 3.886209,6.770113 7.556697,7.767457 1.772196,0.259166 3.747073,0.289765 5.4056,-0.165518 4.566516,-1.565508 7.631225,-6.325123 7.598323,-11.091882 0.05705,-1.817802 0.03885,-3.663563 -0.0065,-5.464758 -0.507781,-0.326951 -0.925823,-1.223871 -1.605312,-0.79925 -0.399792,0.132953 -0.799584,0.265906 -1.199376,0.398859 z m -12.1875,22.162109 c -0.0451,0.590308 -0.342473,1.260219 -0.206633,1.808992 1.331258,1.271942 2.868184,2.197469 4.372649,3.276946 1.610735,-1.091795 3.298267,-2.087468 4.765625,-3.375 -0.120977,-0.648251 -0.321392,-1.278244 -0.470703,-1.919922 -2.651908,0.637459 -5.469427,0.579649 -8.111996,-0.06013 -0.303323,-0.161912 -0.335659,-0.03882 -0.348942,0.269111 z M 56.257812,89.3125 c -2.522024,0.224411 -5.089017,1.16199 -7.025693,2.57902 -3.106042,2.147483 -5.098101,5.634565 -5.771111,9.31385 -1.092389,5.60414 -1.292757,11.33369 -1.59182,17.00089 -0.08222,2.25143 -0.240746,4.50103 -0.242235,6.75468 2.311198,0 4.622396,0 6.933594,0 0.0587,-6.28776 -0.141123,-12.58265 0.158203,-18.86524 0.05602,-1.14228 0.624174,-2.55178 1.937081,-2.6416 1.084027,-0.22701 2.51653,0.26005 2.656935,1.50562 0.474763,2.57528 0.211463,5.20976 0.292942,7.81255 5.71e-4,4.06289 0.0011,8.12578 0.0017,12.18867 9.414062,0 18.828125,0 28.242187,0 0.04996,-6.35493 -0.114381,-12.71517 0.123047,-19.06641 0.01748,-1.09246 0.606252,-2.43519 1.86514,-2.4571 1.153462,-0.20406 2.575752,0.41487 2.710132,1.69712 0.52069,2.53741 0.264824,5.1476 0.345106,7.71936 0.0011,4.03567 0.0023,8.07135 0.0035,12.10703 2.309896,0 4.619792,0 6.929688,0 -0.119064,-6.3398 -0.324696,-12.69736 -0.92563,-18.97724 -0.267554,-1.79891 -0.608334,-3.84283 -1.122618,-5.6902 -0.614437,-2.313825 -1.57255,-4.563986 -3.253621,-6.350295 -2.46287,-2.742664 -6.061979,-4.514761 -9.752819,-4.626799 -3.048815,2.063129 -6.028493,4.272238 -9.166822,6.215024 -0.845799,0.40906 -1.722695,1.22983 -2.717943,0.806461 -1.527069,-0.717924 -2.873885,-1.775382 -4.269375,-2.719484 -2.009433,-1.422781 -3.985473,-2.889856 -5.978672,-4.335204 -0.126953,0.0098 -0.253906,0.01953 -0.38086,0.0293 z" />
</svg>
