<?xml version="1.0" encoding="UTF-8" standalone="no"?>
<!-- Created with Inkscape (http://www.inkscape.org/) -->

<svg
   width="99.084991mm"
   height="84.14521mm"
   viewBox="0 0 99.084991 84.14521"
   version="1.1"
   id="svg5"
   inkscape:version="1.1.1 (3bf5ae0d25, 2021-09-20)"
   sodipodi:docname="logo.svg"
   inkscape:export-filename="C:\Users\u008039\Documents\Hubert\Perso\easyloc\src\assets\logo_big.png"
   inkscape:export-xdpi="200.1326"
   inkscape:export-ydpi="200.1326"
   xmlns:inkscape="http://www.inkscape.org/namespaces/inkscape"
   xmlns:sodipodi="http://sodipodi.sourceforge.net/DTD/sodipodi-0.dtd"
   xmlns:xlink="http://www.w3.org/1999/xlink"
   xmlns="http://www.w3.org/2000/svg"
   xmlns:svg="http://www.w3.org/2000/svg">
  <sodipodi:namedview
     id="namedview7"
     pagecolor="#505050"
     bordercolor="#eeeeee"
     borderopacity="1"
     inkscape:pageshadow="0"
     inkscape:pageopacity="0"
     inkscape:pagecheckerboard="0"
     inkscape:document-units="mm"
     showgrid="false"
     fit-margin-top="0"
     fit-margin-left="0"
     fit-margin-right="0"
     fit-margin-bottom="0"
     inkscape:zoom="1.198417"
     inkscape:cx="282.45593"
     inkscape:cy="165.63516"
     inkscape:window-width="1920"
     inkscape:window-height="1137"
     inkscape:window-x="-8"
     inkscape:window-y="-8"
     inkscape:window-maximized="1"
     inkscape:current-layer="layer1" />
  <defs
     id="defs2">
    <linearGradient
       inkscape:collect="always"
       id="linearGradient4807">
      <stop
         style="stop-color:#4caf50;stop-opacity:1;"
         offset="0"
         id="stop4803" />
      <stop
         style="stop-color:#4cafcd;stop-opacity:1"
         offset="1"
         id="stop4805" />
    </linearGradient>
    <clipPath
       clipPathUnits="userSpaceOnUse"
       id="clipPath4556">
      <rect
         style="opacity:1;vector-effect:none;fill:#000000;fill-opacity:1;stroke:none;stroke-width:3.47231;stroke-linecap:butt;stroke-linejoin:miter;stroke-miterlimit:4;stroke-dasharray:none;stroke-dashoffset:0;stroke-opacity:1;marker:none"
         id="rect4558"
         width="48.375786"
         height="72.162773"
         x="116.79678"
         y="164.43433" />
    </clipPath>
    <clipPath
       clipPathUnits="userSpaceOnUse"
       id="clipPath4556-7">
      <rect
         style="opacity:1;vector-effect:none;fill:#000000;fill-opacity:1;stroke:none;stroke-width:3.47231;stroke-linecap:butt;stroke-linejoin:miter;stroke-miterlimit:4;stroke-dasharray:none;stroke-dashoffset:0;stroke-opacity:1;marker:none"
         id="rect4558-9"
         width="48.375786"
         height="72.162773"
         x="116.79678"
         y="164.43433" />
    </clipPath>
    <clipPath
       clipPathUnits="userSpaceOnUse"
       id="clipPath4556-71">
      <rect
         style="opacity:1;vector-effect:none;fill:#000000;fill-opacity:1;stroke:none;stroke-width:3.47231;stroke-linecap:butt;stroke-linejoin:miter;stroke-miterlimit:4;stroke-dasharray:none;stroke-dashoffset:0;stroke-opacity:1;marker:none"
         id="rect4558-8"
         width="48.375786"
         height="72.162773"
         x="116.79678"
         y="164.43433" />
    </clipPath>
    <linearGradient
       inkscape:collect="always"
       xlink:href="#linearGradient4807"
       id="linearGradient4825-1"
       x1="143.10654"
       y1="230.92598"
       x2="141.47636"
       y2="142.30217"
       gradientUnits="userSpaceOnUse" />
    <clipPath
       clipPathUnits="userSpaceOnUse"
       id="clipPath4556-3">
      <rect
         style="opacity:1;vector-effect:none;fill:#000000;fill-opacity:1;stroke:none;stroke-width:3.47231;stroke-linecap:butt;stroke-linejoin:miter;stroke-miterlimit:4;stroke-dasharray:none;stroke-dashoffset:0;stroke-opacity:1;marker:none"
         id="rect4558-0"
         width="48.375786"
         height="72.162773"
         x="116.79678"
         y="164.43433" />
    </clipPath>
    <linearGradient
       gradientTransform="matrix(3.7795276,0,0,3.7795276,-200.77343,-529.7289)"
       inkscape:collect="always"
       xlink:href="#linearGradient4807"
       id="linearGradient4825-0"
       x1="153.87886"
       y1="219.5867"
       x2="152.24869"
       y2="123.21437"
       gradientUnits="userSpaceOnUse" />
    <linearGradient
       gradientTransform="matrix(2.7458069,0,0,2.7458069,-221.99065,-42.156717)"
       inkscape:collect="always"
       xlink:href="#linearGradient4807"
       id="linearGradient4939-5"
       gradientUnits="userSpaceOnUse"
       x1="152.57817"
       y1="133.74152"
       x2="150.948"
       y2="1.9905715" />
    <clipPath
       clipPathUnits="userSpaceOnUse"
       id="clipPath5517">
      <rect
         style="opacity:1;vector-effect:none;fill:#ffffff;fill-opacity:1;stroke:none;stroke-width:4.12942;stroke-linecap:butt;stroke-linejoin:miter;stroke-miterlimit:4;stroke-dasharray:none;stroke-dashoffset:0;stroke-opacity:1;marker:none"
         id="rect5519"
         width="27.556402"
         height="60.918285"
         x="115.89378"
         y="11.952137" />
    </clipPath>
    <clipPath
       clipPathUnits="userSpaceOnUse"
       id="clipPath5548">
      <path
         style="fill:#ffffff;fill-opacity:1;stroke:#000000;stroke-width:0.322894px;stroke-linecap:butt;stroke-linejoin:miter;stroke-opacity:1"
         d="m 68.288485,133.04004 7.338864,30.49707 11.15067,8.17558 v 29.93273 l 39.816441,-1.05691 11.98404,-60.0465 -11.90527,-9.45899 z"
         id="path5550"
         inkscape:connector-curvature="0" />
    </clipPath>
  </defs>
  <g
     inkscape:label="Calque 1"
     inkscape:groupmode="layer"
     id="layer1"
     transform="translate(-22.572351,-188.414)">
    <g
       id="g944"
       transform="translate(-127.83247,-10.716495)">
      <path
         id="path946"
         style="fill:#353842;stroke-width:0.189089"
         d="m 168.6272,262.38957 c -1.53738,0.14069 -3.28689,0.84178 -3.8573,2.40012 -0.32767,1.04243 -0.60724,2.16077 -0.45443,3.2572 0.13934,0.76927 1.043,0.72621 1.64429,0.69234 0.6314,0.0326 1.09339,-0.5397 1.06119,-1.14472 0.0504,-0.85535 -0.0973,-1.96256 0.76837,-2.47557 1.04604,-0.51592 2.46267,-0.49398 3.38633,0.27391 0.708,0.57386 0.48606,1.58725 0.58063,2.38491 -0.0289,1.11641 0.12902,2.25377 -0.0638,3.35672 -0.35341,0.38113 -0.98523,0.21692 -1.46132,0.27995 -1.28843,0.0748 -2.62536,-0.0824 -3.87216,0.31049 -1.06868,0.43336 -1.90991,1.39085 -2.07561,2.5488 -0.29186,1.79128 -0.27801,3.62539 -0.16805,5.43265 0.0961,1.73971 1.56852,3.20374 3.27119,3.43978 1.6527,0.40499 3.48038,-0.22644 4.62323,-1.46507 0.25369,-0.32458 0.53391,-0.45415 0.61938,0.0622 0.17305,0.55708 0.6968,1.21403 1.34693,0.93477 0.52508,-0.45881 0.33636,-1.26071 0.41047,-1.88335 0.0689,-5.02854 0.0218,-10.05823 0.0362,-15.08722 -0.48962,-0.94867 -0.87449,-2.11223 -1.94239,-2.56325 -1.17286,-0.62494 -2.53353,-0.8653 -3.85312,-0.75466 z m 75.02619,0 c -1.5153,0.16221 -3.26058,0.62438 -4.04456,2.06588 -0.73417,1.33266 -0.52137,2.9152 -0.59779,4.37666 0.001,3.45785 -0.0685,6.9187 0.0532,10.37469 -0.003,1.62903 1.14774,3.12698 2.68395,3.62846 1.52907,0.59699 3.25219,0.47208 4.81695,0.0857 1.8521,-0.5012 2.94335,-2.46138 2.90324,-4.30021 -0.003,-0.55034 -0.0673,-1.09823 -0.099,-1.64745 -0.79749,0 -1.59498,0 -2.39246,0 -0.1736,1.01336 -0.0735,2.12121 -0.56187,3.05202 -0.73703,0.95163 -2.11311,0.90012 -3.18316,0.71813 -0.60358,-0.12689 -1.29363,-0.47216 -1.31299,-1.17765 -0.26499,-2.09157 -0.14114,-4.21087 -0.18002,-6.31463 0.0371,-2.37001 -0.0751,-4.74879 0.12509,-7.11235 0.11582,-1.00479 1.23676,-1.3686 2.11013,-1.33813 0.94529,-0.0127 2.20766,0.0823 2.57569,1.13155 0.4537,1.14501 0.12762,2.411 0.41038,3.57892 0.3206,0.62864 1.18932,0.56878 1.78387,0.46761 0.66366,-0.0756 0.77677,-0.81325 0.73945,-1.35478 0.008,-1.6165 0.0761,-3.48261 -1.118,-4.74388 -1.1885,-1.2538 -3.0516,-1.60517 -4.71206,-1.4905 z m -59.01594,0.0377 c -1.64682,0.039 -3.4645,0.68037 -4.24614,2.23893 -0.6715,1.27623 -0.49698,2.8005 -0.21775,4.15959 0.24025,1.05122 1.15823,1.73436 1.81553,2.52858 1.86708,2.05637 3.9511,3.92162 5.68011,6.09908 0.16105,0.73216 0.33277,1.57957 -0.0138,2.27933 -0.37909,0.53 -0.87028,1.11169 -1.59291,1.05087 -1.05597,0.0679 -2.35035,0.20757 -3.0978,-0.71754 -0.48292,-0.65431 -0.32726,-1.56075 -0.4297,-2.30642 -0.0325,-0.57713 -0.0632,-1.15436 -0.0974,-1.73139 -0.81238,0 -1.62475,0 -2.43713,0 0.0458,1.46614 -0.10644,2.95128 0.1241,4.4045 0.40392,1.52804 1.98406,2.40236 3.43762,2.6987 1.79273,0.31787 3.7594,0.13677 5.34316,-0.80966 1.29941,-0.77274 1.65668,-2.40356 1.55769,-3.81163 -0.0683,-1.16079 -0.19521,-2.4447 -1.08139,-3.29909 -1.92501,-2.26615 -4.23774,-4.16546 -6.17354,-6.41883 -0.64857,-0.72865 -0.79121,-1.78921 -0.56253,-2.70932 0.35444,-0.61285 0.90076,-1.28072 1.68478,-1.24229 1.02442,-0.08 2.37452,-0.11458 2.9801,0.89054 0.42547,1.23772 0.32624,2.58108 0.46761,3.86786 0.80493,0 1.60986,0 2.41479,0 0.081,-1.83776 0.34492,-3.90154 -0.78362,-5.49847 -1.06599,-1.49872 -3.07539,-1.73963 -4.7718,-1.67334 z m 43.05595,0.008 c -1.46623,0.0347 -3.03066,0.47958 -3.96324,1.68679 -0.90512,1.09341 -0.77412,2.61116 -0.86109,3.94085 -0.0411,3.56734 -0.0622,7.13805 0.0439,10.70394 -0.002,1.15956 0.29505,2.39399 1.21544,3.17383 1.51457,1.36784 3.7207,1.43154 5.63694,1.16406 1.68591,-0.14616 3.23483,-1.40762 3.62816,-3.06418 0.25583,-2.42713 0.18177,-4.8781 0.22067,-7.31626 -0.036,-2.39205 0.0351,-4.79547 -0.20764,-7.17771 -0.39312,-1.59938 -1.86615,-2.74455 -3.46135,-2.98205 -0.74028,-0.14973 -1.49974,-0.15593 -2.25181,-0.12927 z m -23.28394,0.26382 c -0.74482,-0.038 -0.9995,0.77788 -0.99962,1.38599 -0.14731,3.13402 0.0513,6.30745 -0.22414,9.41422 -0.0909,0.84454 -0.9195,1.32563 -1.7075,1.34914 -0.86371,0.0284 -1.79874,0.17131 -2.61161,-0.18285 -0.93183,-0.5012 -0.84761,-1.69548 -0.92808,-2.60007 -0.0971,-3.02834 -0.0471,-6.05921 -0.0713,-9.08866 -0.79207,-0.27183 -1.65143,-0.3463 -2.44921,-0.0496 -0.45121,0.0619 -0.10752,0.73732 -0.20944,1.06851 0.0592,3.25559 0.009,6.51569 0.17138,9.76797 -0.006,1.47768 1.18824,2.66548 2.51518,3.12959 0.39915,0.15126 0.80485,0.28391 1.2088,0.42155 0.0781,1.67811 -0.0405,3.38759 0.29452,5.04036 0.29392,0.62093 1.17221,0.635 1.75873,0.49952 0.53787,-0.0641 0.77667,-0.57434 0.77751,-1.06343 0.16192,-1.48612 0.13878,-2.98394 0.18285,-4.47645 1.21529,-0.39353 2.61332,-0.81776 3.22902,-2.05149 0.70383,-1.12161 0.49645,-2.51303 0.58107,-3.7719 0.005,-2.51559 0.14576,-5.03808 -0.023,-7.54965 -0.0102,-0.59544 -0.3595,-1.30676 -1.05147,-1.24335 -0.14781,-0.006 -0.29577,0.001 -0.44363,5.9e-4 z m 8.13493,0.003 c -0.49894,-0.0158 -1.10998,0.19674 -1.1055,0.78865 -0.20955,2.40978 -0.10539,4.83644 -0.14035,7.25332 0.0216,3.6973 -0.0635,7.399 0.11096,11.09299 0.004,0.42277 0.0923,1.05446 0.65479,0.99153 2.03383,0.089 4.07772,0.14396 6.1109,0.0224 0.59113,-0.0138 1.30013,-0.36436 1.2395,-1.05106 -0.0126,-0.40931 -0.0841,-0.81411 -0.12423,-1.22136 -1.75171,-0.065 -3.50357,-0.12589 -5.25532,-0.18983 -0.0554,-5.33064 0.002,-10.66469 -0.1843,-15.99256 -0.0625,-0.56345 0.0741,-1.39165 -0.62808,-1.59079 -0.21676,-0.0798 -0.44832,-0.10834 -0.67837,-0.10329 z m -60.09352,0.0182 c -0.55229,0.0758 -1.18807,-0.0808 -1.6806,0.22472 -0.40273,0.64178 -0.24503,1.46321 -0.3186,2.18694 -0.064,5.08693 -0.0622,10.17547 0.004,15.26241 0.0545,0.7266 -0.0207,1.48268 0.1982,2.18588 0.33631,0.43062 0.99478,0.19274 1.47656,0.27937 2.18818,0.005 4.38457,0.0673 6.56694,-0.10852 0.58926,-0.0156 1.31133,-0.39594 1.16623,-1.08791 -0.0652,-0.39854 -0.18555,-0.78502 -0.27777,-1.17809 -2.14541,-0.0338 -4.29079,-0.0697 -6.4362,-0.10329 0,-2.14912 0,-4.29824 0,-6.44737 1.69037,-0.0626 3.38074,-0.12495 5.07107,-0.18843 0.0392,-0.67714 0.31903,-1.60682 -0.32523,-2.08678 -1.01803,-0.34139 -2.13152,-0.2499 -3.19384,-0.31536 -0.51733,-0.0117 -1.03467,-0.0234 -1.552,-0.035 0,-2.02349 0,-4.04699 0,-6.07049 2.0686,-0.0632 4.13722,-0.1257 6.20589,-0.18704 0.0146,-0.70154 0.36245,-1.6364 -0.29313,-2.15657 -1.36684,-0.23639 -2.77243,-0.14505 -4.15596,-0.19137 -0.81884,-0.005 -1.63741,6.7e-4 -2.45611,0.0169 z m 76.2573,2.07979 c 0.83702,0.061 1.94115,0.39419 2.03698,1.3782 0.30382,2.04156 0.17153,4.11885 0.21369,6.17662 -0.0349,2.29981 0.0843,4.61239 -0.17507,6.90185 -0.0302,0.63962 -0.45198,1.17264 -1.06362,1.35676 -1.08278,0.33066 -2.36563,0.38147 -3.36955,-0.20938 -0.94512,-0.61221 -0.77799,-1.86786 -0.84254,-2.84015 -0.0282,-3.42955 -0.0836,-6.86266 0.0483,-10.29047 0.0723,-0.77565 0.06,-1.83404 0.93778,-2.15554 0.67495,-0.34726 1.47406,-0.35558 2.21402,-0.31789 z m -58.7619,8.86356 c 0.56803,0.0317 1.16042,-0.0382 1.7085,0.13819 0.21806,1.54572 0.033,3.1198 0.0395,4.67634 0.12849,0.5094 -0.30249,0.78333 -0.61064,1.10895 -0.65845,0.68103 -1.48734,1.31339 -2.48947,1.24701 -0.70506,0.0686 -1.49507,-0.25218 -1.6755,-0.9995 -0.35471,-1.36215 -0.25276,-2.79901 -0.18984,-4.1917 0.0427,-0.72643 0.29094,-1.64211 1.12303,-1.79348 0.67968,-0.18679 1.39529,-0.17323 2.09437,-0.18581 z" />
    </g>
    <path
       id="path1083"
       style="fill:#1895ab;fill-opacity:1;stroke:none;stroke-width:0.999999px;stroke-linecap:butt;stroke-linejoin:miter;stroke-opacity:1"
       d="m 335.75195,773.21094 a 47.703632,47.703632 0 0 0 -5.60547,0.36718 c -0.17197,3.82595 -0.89074,7.86024 -1.6621,11.12305 -0.45455,1.92269 -1.0476,3.53554 -1.91602,6.03321 -0.86844,2.49762 -2.20053,5.59811 -3.25195,7.15429 -2.10283,3.11244 -5.3615,3.39609 -5.64844,3.42383 -0.40505,0.0393 -1.44632,0.29235 -2.9668,-0.006 -0.89317,-0.17575 -2.04883,-0.66992 -2.04883,-0.66992 v -0.002 c -3.32562,-1.65778 -4.22193,-3.78669 -4.76367,-5.67774 -0.48286,-1.68525 -0.36577,-3.73371 0.20313,-5.13867 0.33343,-0.8236 1.49553,-3.13947 2.31054,-5.4082 0.69424,-1.93262 1.14305,-3.71507 1.36133,-4.66602 a 47.703632,47.703632 0 0 0 -23.71484,41.16992 47.703632,47.703632 0 0 0 47.70312,47.70313 47.703632,47.703632 0 0 0 18.28711,-3.67188 l 0.88086,1.17383 16.9961,17.35742 14.82812,0.72266 1.08398,16.27539 15.91211,1.08398 v 14.46485 l 16.27344,1.08594 1.8086,15.9121 27.8457,0.72266 -1.08399,-27.8457 -68.48632,-67.41602 a 47.703632,47.703632 0 0 0 3.35937,-17.56836 47.703632,47.703632 0 0 0 -47.70508,-47.70312 z"
       transform="scale(0.26458333)" />
    <path
       id="path4025-8"
       style="fill:none;fill-opacity:1;stroke:#282c36;stroke-width:2.2;stroke-linecap:round;stroke-miterlimit:4;stroke-dasharray:none;stroke-opacity:1;stop-color:#000000"
       d="m 62.503163,212.19584 c 1.428502,1.4605 3.173074,2.57375 5.099431,3.25406 m 5.290116,0.73902 c 1.19046,-0.0774 2.365184,-0.31391 3.492809,-0.70332 m 7.24193,-5.97431 c 1.160186,-2.02211 1.770749,-4.31274 1.77096,-6.64404 4.7e-5,-7.37458 -5.978093,-13.35295 -13.352675,-13.35319 l -3e-6,-6e-5 c -7.374783,-5e-5 -13.353237,5.97841 -13.35319,13.35319 0.0031,1.17672 0.08859,1.1789 0.10185,1.61325"
       sodipodi:nodetypes="cccccccccc" />
    <path
       id="path3164-1"
       style="fill:#419a1c;fill-opacity:1;stroke:none;stroke-width:0.264583px;stroke-linecap:butt;stroke-linejoin:miter;stroke-opacity:1"
       d="m 66.446451,205.71058 -29.071652,-1.03722 3.722475,4.20506 -17.947325,16.36679 8.051334,8.7274 8.730265,-8.09931 4.365186,4.76367 -8.775428,8.04951 7.826872,8.42928 18.042787,-16.3616 3.99958,4.41054 0.646071,-18.01778 c -0.901338,-0.34921 -1.800053,-0.8273 -2.520582,-1.26193 -0.447603,-0.26999 -0.806045,-0.5498 -1.365025,-0.97057 -0.558979,-0.42076 -1.232221,-1.00639 -1.539232,-1.39712 -0.614022,-0.78145 -0.422549,-1.62578 -0.406354,-1.70031 0.02286,-0.10521 0.04362,-0.3878 0.241886,-0.74666 0.116473,-0.21081 0.334567,-0.46222 0.334567,-0.46222 0.68659,-0.70373 1.295773,-0.75709 1.815981,-0.74063 0.463613,0.0146 0.969963,0.20959 1.277899,0.46653 0.180504,0.1506 0.670206,0.63099 1.175843,1.01978 0.505636,0.38879 0.988662,0.6774 1.164346,0.77864 1.24e-4,7e-5 3.9e-4,-4e-5 5.16e-4,2e-5 z" />
    <path
       id="path1083-7"
       style="fill:#1895ab;fill-opacity:1;stroke:none;stroke-width:0.264583px;stroke-linecap:butt;stroke-linejoin:miter;stroke-opacity:1"
       d="m 88.834369,204.57871 a 12.621586,12.621586 0 0 0 -1.483114,0.0971 c -0.0455,1.01228 -0.235675,2.07968 -0.439764,2.94297 -0.120266,0.50871 -0.277177,0.93544 -0.506947,1.59629 -0.229775,0.66082 -0.582223,1.48116 -0.860412,1.8929 -0.556373,0.8235 -1.418563,0.89855 -1.494483,0.90589 -0.107169,0.0104 -0.382672,0.0773 -0.784966,-0.002 -0.236317,-0.0465 -0.542086,-0.17725 -0.542086,-0.17725 v -5.3e-4 c -0.879903,-0.43862 -1.117052,-1.00189 -1.260387,-1.50223 -0.127757,-0.44589 -0.09678,-0.98788 0.05374,-1.35961 0.08822,-0.21791 0.395693,-0.83065 0.611331,-1.43092 0.183684,-0.51134 0.302432,-0.98294 0.360185,-1.23455 a 12.621586,12.621586 0 0 0 -6.274551,10.89288 12.621586,12.621586 0 0 0 12.62145,12.62145 12.621586,12.621586 0 0 0 4.838464,-0.97152 l 0.233061,0.31058 4.496885,4.59248 3.923275,0.1912 0.28681,4.3062 4.21008,0.2868 v 3.82716 l 4.30568,0.28732 0.47852,4.21008 7.36751,0.1912 -0.28681,-7.3675 -18.12033,-17.83716 a 12.621586,12.621586 0 0 0 0.88883,-4.64829 12.621586,12.621586 0 0 0 -12.621975,-12.62145 z" />
    <path
       id="path16509-3"
       style="fill:#009654;fill-opacity:1;stroke-width:0.0712753"
       d="m 74.037412,212.58573 c -0.148956,0.0164 -0.324344,0.0496 -0.538639,0.10106 -1.111411,0.26683 -1.7509,0.56277 -2.815904,1.01666 0,0 -0.879078,0.36886 -1.310266,0.55828 -0.431221,0.18934 -0.950143,0.43898 -1.620332,0.83394 -0.670187,0.39499 -2.340162,1.42019 -3.692504,2.81188 -2.135044,2.19723 -3.830002,5.32181 -4.472215,8.24566 -0.373079,1.69851 -0.502746,3.89426 -0.321047,5.4539 l 0.08499,0.7299 -1.12399,0.54064 c -1.268122,0.61005 -1.504093,0.78328 -1.604828,1.17501 l -0.07084,0.27469 0.770674,1.60432 c 1.061487,2.20986 1.02479,2.18779 2.470406,1.50148 l 0.908347,-0.43163 0.07394,0.25358 c 0.04072,0.1396 0.271827,0.66612 0.513217,1.16987 l 0.43872,0.91585 -0.772831,0.3715 c -0.891749,0.42832 -1.112926,0.62802 -1.154549,1.04368 -0.02557,0.25561 0.02483,0.38359 0.713392,1.81708 0.679072,1.41375 0.75891,1.5541 0.963483,1.68683 0.37606,0.24397 0.492545,0.21945 1.831106,-0.38046 l 1.23041,-0.55154 0.57775,0.59258 c 1.928099,1.97665 4.105139,3.39726 6.465212,4.2193 3.817346,1.32942 7.491867,1.3255 11.43888,-0.0122 l 6.1e-5,5.3e-4 c 0.900618,-0.30518 2.791393,-1.19374 3.628164,-1.70445 1.238549,-0.75593 2.637174,-1.811 3.192365,-2.40884 0.212104,-0.22842 0.284428,-0.55415 0.18817,-0.84984 -0.06068,-0.18655 -0.5102,-0.80712 -1.477832,-2.04022 -1.516165,-1.93216 -1.622806,-2.02938 -2.123641,-1.93908 -0.209454,0.0377 -0.37777,0.14689 -0.885416,0.57407 -3.473687,2.92295 -7.212026,3.7516 -10.983432,2.43443 -1.190335,-0.41572 -2.13114,-0.91848 -2.97456,-1.59018 l -0.516461,-0.4114 4.575114,-2.23735 c 4.515357,-2.20791 4.576867,-2.24018 4.692274,-2.45864 0.06424,-0.12178 0.116672,-0.30726 0.117159,-0.41228 4.05e-4,-0.10497 -0.171224,-0.90271 -0.381445,-1.7727 -0.363095,-1.50253 -0.393255,-1.59262 -0.601034,-1.79956 -0.120282,-0.11985 -0.329219,-0.23901 -0.464459,-0.26504 -0.244343,-0.0469 -0.280492,-0.0309 -5.743983,2.5725 l -5.49854,2.6202 -0.529354,-1.14768 -0.529863,-1.14761 5.771294,-2.78797 c 4.180593,-2.01951 5.810252,-2.83202 5.913868,-2.94777 0.07842,-0.0879 0.154998,-0.25093 0.169846,-0.36223 0.03061,-0.23022 -0.665989,-3.15562 -0.838529,-3.52046 -0.13592,-0.28765 -0.396033,-0.45726 -0.755494,-0.49319 -0.257754,-0.0261 -0.426629,0.051 -5.742371,2.60404 -3.01251,1.44685 -5.484816,2.61504 -5.494058,2.59629 -0.03696,-0.0769 0.0044,-0.90454 0.07248,-1.45546 0.329919,-2.66859 1.791891,-5.20738 3.934836,-6.83248 1.311148,-0.99439 3.09275,-1.82004 4.923646,-2.28235 0.374558,-0.0945 0.742905,-0.20211 0.818594,-0.23844 0.216509,-0.104 0.42057,-0.42099 0.427815,-0.66511 2.26e-4,-0.0101 -0.0027,-0.0358 -0.0047,-0.0577 0.02299,-0.45762 -0.505499,-0.1267 -0.982066,-0.011 -0.679883,0.16505 -1.751994,0.2928 -2.245622,0.23575 -0.92793,-0.0974 -1.228387,-0.62582 -1.452711,-1.36159 -0.169501,-0.60059 0.0446,-1.41383 0.361485,-1.72697 0.336791,-0.31891 1.255261,-0.38456 1.790701,-0.41696 0.535439,-0.0324 0.905237,-0.0928 1.453261,-0.24149 0.548025,-0.14872 0.353813,-0.53341 0.213126,-1.00545 -0.117433,-0.35621 -0.228596,-0.45138 -0.411796,-0.52616 -0.165442,-0.0675 -0.341176,-0.0891 -0.589485,-0.062 z"
       sodipodi:nodetypes="ccccsssccccccccscccsssccccccssssscscccccsscccccsccccscscccccsccczzcscc" />
  </g>
</svg>
